<svg version="1" xmlns="http://www.w3.org/2000/svg" width="944" height="944" viewBox="0 0 708.000000 708.000000"><path d="M298.5 110c-48.6 5.6-88.3 24.3-119 56.2-33.4 34.6-51.2 78.2-55.6 136.3-4.5 60.5 10 118 39.6 157.4 41.2 54.6 110.7 77.4 196.5 64.5 20.4-3 46.4-10.6 47.6-13.9.5-1.3-8-43.2-9.4-46.7-.6-1.5-1.2-1.4-6.7.8-9.4 3.9-26.8 8.1-41 9.8-81.3 9.9-137.6-26-156-99.4-4.5-17.9-5.9-30.8-5.9-55 0-29 2.3-45.9 9.5-68 13.6-41.8 42.3-71.7 81.1-84.4 16.3-5.3 22.6-6.1 47.8-6 27 0 35.5 1.3 55.8 8.4 6.4 2.3 12.3 4.2 13.1 4.3.9.1 3.1-6.6 7.7-23.8 3.5-13.2 6.4-24.5 6.4-25.2 0-2.7-27.5-10.8-47-13.8-12.4-1.9-52.5-2.8-64.5-1.5z"/><path d="M434.1 188.5c-24.9 4.4-47.1 16.2-65.6 34.9-24.2 24.4-37.8 55.8-40.5 93.1-4.5 63.7 27.1 114.5 80.5 129.2 9.3 2.6 11.3 2.8 29.5 2.8 17.3 0 20.5-.3 28.4-2.4 19.3-5 35.3-14.1 48.1-27 3.8-3.9 7.3-7.1 7.8-7.1 1.2 0 .1 6.5-3.8 21.5-16.6 64-56.4 103.7-113.9 113.5-12.7 2.2-36.6 4.1-41.3 3.3l-3.3-.5v49.5l16.3-.6C454.9 596 511.2 565 548 504c18-29.7 29.5-65.7 34.6-108 2.5-20.2 2.5-61.8.1-78.5-6.3-42.8-20.5-75.2-43.2-98-14-14.2-31-23.8-51.4-29.2-8.2-2.2-12.3-2.6-27.6-2.9-12.7-.2-20.5.1-26.4 1.1zm34.3 45c10.1 2.6 16.6 6.5 24.7 14.5 17.4 17.3 26.3 42.3 28.9 81.9 1.7 25.6-.4 35.6-10.5 48.3-13.6 17.3-35.1 27.8-56.9 27.8-32.3 0-55.3-21.1-63.3-58-2.7-12.7-2.4-38.8.6-52.9 4.3-20.4 11.2-34.1 23.1-46.1 8-8.1 15.9-12.9 25.1-15.4 7.1-1.9 21.1-2 28.3-.1z"/></svg>